<mxfile host="app.diagrams.net" modified="2024-05-21T02:18:54.603Z" agent="Mozilla/5.0 (Windows NT 10.0; Win64; x64) AppleWebKit/537.36 (KHTML, like Gecko) Chrome/124.0.0.0 Safari/537.36" etag="F_43wwG4c18Zd8DI-SDU" version="24.4.4" type="github">
  <diagram name="Page-1" id="cuxniRh0S-XcieH1EGRX">
    <mxGraphModel dx="1838" dy="2169" grid="1" gridSize="10" guides="1" tooltips="1" connect="1" arrows="1" fold="1" page="1" pageScale="1" pageWidth="827" pageHeight="1169" math="0" shadow="0">
      <root>
        <mxCell id="0" />
        <mxCell id="1" parent="0" />
        <mxCell id="pzeU2sRxU3IxJTgZdXs2-1" value="" style="ellipse;whiteSpace=wrap;html=1;aspect=fixed;fillColor=#FF3333;" parent="1" vertex="1">
          <mxGeometry x="30" y="40" width="270" height="270" as="geometry" />
        </mxCell>
        <mxCell id="pzeU2sRxU3IxJTgZdXs2-2" value="利率分组&lt;br&gt;A" style="text;html=1;strokeColor=none;fillColor=none;align=center;verticalAlign=middle;whiteSpace=wrap;rounded=0;" parent="1" vertex="1">
          <mxGeometry x="40" y="115" width="60" height="30" as="geometry" />
        </mxCell>
        <mxCell id="pzeU2sRxU3IxJTgZdXs2-7" value="" style="group;fillColor=none;" parent="1" vertex="1" connectable="0">
          <mxGeometry x="113" y="48" width="70" height="70" as="geometry" />
        </mxCell>
        <mxCell id="pzeU2sRxU3IxJTgZdXs2-3" value="" style="ellipse;whiteSpace=wrap;html=1;aspect=fixed;fillColor=#CC0000;" parent="pzeU2sRxU3IxJTgZdXs2-7" vertex="1">
          <mxGeometry width="70" height="70" as="geometry" />
        </mxCell>
        <mxCell id="pzeU2sRxU3IxJTgZdXs2-4" value="B" style="text;html=1;strokeColor=none;fillColor=none;align=center;verticalAlign=middle;whiteSpace=wrap;rounded=0;" parent="pzeU2sRxU3IxJTgZdXs2-7" vertex="1">
          <mxGeometry x="5" y="20" width="60" height="30" as="geometry" />
        </mxCell>
        <mxCell id="pzeU2sRxU3IxJTgZdXs2-8" value="" style="group" parent="1" vertex="1" connectable="0">
          <mxGeometry x="94" y="137" width="90" height="90" as="geometry" />
        </mxCell>
        <mxCell id="pzeU2sRxU3IxJTgZdXs2-5" value="" style="ellipse;whiteSpace=wrap;html=1;aspect=fixed;fillColor=#FF0000;" parent="pzeU2sRxU3IxJTgZdXs2-8" vertex="1">
          <mxGeometry width="90" height="90" as="geometry" />
        </mxCell>
        <mxCell id="pzeU2sRxU3IxJTgZdXs2-6" value="C" style="text;html=1;strokeColor=none;fillColor=none;align=center;verticalAlign=middle;whiteSpace=wrap;rounded=0;" parent="pzeU2sRxU3IxJTgZdXs2-8" vertex="1">
          <mxGeometry x="14" y="30" width="60" height="30" as="geometry" />
        </mxCell>
        <mxCell id="r5-Ut91ZBRecWBddgbR_-1" value="" style="ellipse;whiteSpace=wrap;html=1;aspect=fixed;fillColor=#FF9933;" parent="1" vertex="1">
          <mxGeometry x="452" y="40" width="190" height="190" as="geometry" />
        </mxCell>
        <mxCell id="r5-Ut91ZBRecWBddgbR_-2" value="CD分组&lt;br&gt;A" style="text;html=1;strokeColor=none;fillColor=none;align=center;verticalAlign=middle;whiteSpace=wrap;rounded=0;" parent="1" vertex="1">
          <mxGeometry x="462" y="115" width="60" height="30" as="geometry" />
        </mxCell>
        <mxCell id="r5-Ut91ZBRecWBddgbR_-3" value="" style="group" parent="1" vertex="1" connectable="0">
          <mxGeometry x="536" y="47" width="70" height="70" as="geometry" />
        </mxCell>
        <mxCell id="r5-Ut91ZBRecWBddgbR_-4" value="" style="ellipse;whiteSpace=wrap;html=1;aspect=fixed;fillColor=#CC6600;" parent="r5-Ut91ZBRecWBddgbR_-3" vertex="1">
          <mxGeometry width="70" height="70" as="geometry" />
        </mxCell>
        <mxCell id="r5-Ut91ZBRecWBddgbR_-5" value="B" style="text;html=1;strokeColor=none;fillColor=none;align=center;verticalAlign=middle;whiteSpace=wrap;rounded=0;" parent="r5-Ut91ZBRecWBddgbR_-3" vertex="1">
          <mxGeometry x="5" y="20" width="60" height="30" as="geometry" />
        </mxCell>
        <mxCell id="r5-Ut91ZBRecWBddgbR_-6" value="" style="group" parent="1" vertex="1" connectable="0">
          <mxGeometry x="516" y="137" width="90" height="90" as="geometry" />
        </mxCell>
        <mxCell id="r5-Ut91ZBRecWBddgbR_-7" value="" style="ellipse;whiteSpace=wrap;html=1;aspect=fixed;fillColor=#FF8000;" parent="r5-Ut91ZBRecWBddgbR_-6" vertex="1">
          <mxGeometry width="90" height="90" as="geometry" />
        </mxCell>
        <mxCell id="r5-Ut91ZBRecWBddgbR_-8" value="C" style="text;html=1;strokeColor=none;fillColor=none;align=center;verticalAlign=middle;whiteSpace=wrap;rounded=0;" parent="r5-Ut91ZBRecWBddgbR_-6" vertex="1">
          <mxGeometry x="14" y="30" width="60" height="30" as="geometry" />
        </mxCell>
        <mxCell id="r5-Ut91ZBRecWBddgbR_-9" value="" style="ellipse;whiteSpace=wrap;html=1;aspect=fixed;fillColor=#000099;" parent="1" vertex="1">
          <mxGeometry x="682" y="41" width="190" height="190" as="geometry" />
        </mxCell>
        <mxCell id="r5-Ut91ZBRecWBddgbR_-10" value="信用1分组A" style="text;html=1;strokeColor=none;fillColor=none;align=center;verticalAlign=middle;whiteSpace=wrap;rounded=0;" parent="1" vertex="1">
          <mxGeometry x="692" y="116" width="60" height="30" as="geometry" />
        </mxCell>
        <mxCell id="r5-Ut91ZBRecWBddgbR_-11" value="" style="group" parent="1" vertex="1" connectable="0">
          <mxGeometry x="766" y="48" width="70" height="70" as="geometry" />
        </mxCell>
        <mxCell id="r5-Ut91ZBRecWBddgbR_-12" value="" style="ellipse;whiteSpace=wrap;html=1;aspect=fixed;fillColor=#CCCC00;" parent="r5-Ut91ZBRecWBddgbR_-11" vertex="1">
          <mxGeometry width="70" height="70" as="geometry" />
        </mxCell>
        <mxCell id="r5-Ut91ZBRecWBddgbR_-13" value="B" style="text;html=1;strokeColor=none;fillColor=none;align=center;verticalAlign=middle;whiteSpace=wrap;rounded=0;" parent="r5-Ut91ZBRecWBddgbR_-11" vertex="1">
          <mxGeometry x="5" y="20" width="60" height="30" as="geometry" />
        </mxCell>
        <mxCell id="r5-Ut91ZBRecWBddgbR_-14" value="" style="group" parent="1" vertex="1" connectable="0">
          <mxGeometry x="746" y="138" width="90" height="90" as="geometry" />
        </mxCell>
        <mxCell id="r5-Ut91ZBRecWBddgbR_-15" value="" style="ellipse;whiteSpace=wrap;html=1;aspect=fixed;fillColor=#FFFF00;" parent="r5-Ut91ZBRecWBddgbR_-14" vertex="1">
          <mxGeometry width="90" height="90" as="geometry" />
        </mxCell>
        <mxCell id="r5-Ut91ZBRecWBddgbR_-16" value="C" style="text;html=1;strokeColor=none;fillColor=none;align=center;verticalAlign=middle;whiteSpace=wrap;rounded=0;" parent="r5-Ut91ZBRecWBddgbR_-14" vertex="1">
          <mxGeometry x="14" y="30" width="60" height="30" as="geometry" />
        </mxCell>
        <mxCell id="r5-Ut91ZBRecWBddgbR_-17" value="" style="ellipse;whiteSpace=wrap;html=1;aspect=fixed;fillColor=#0000CC;" parent="1" vertex="1">
          <mxGeometry x="942" y="42" width="190" height="190" as="geometry" />
        </mxCell>
        <mxCell id="r5-Ut91ZBRecWBddgbR_-18" value="信用2分组A" style="text;html=1;strokeColor=none;fillColor=none;align=center;verticalAlign=middle;whiteSpace=wrap;rounded=0;" parent="1" vertex="1">
          <mxGeometry x="952" y="117" width="60" height="30" as="geometry" />
        </mxCell>
        <mxCell id="r5-Ut91ZBRecWBddgbR_-19" value="" style="group" parent="1" vertex="1" connectable="0">
          <mxGeometry x="1026" y="49" width="70" height="70" as="geometry" />
        </mxCell>
        <mxCell id="r5-Ut91ZBRecWBddgbR_-20" value="" style="ellipse;whiteSpace=wrap;html=1;aspect=fixed;fillColor=#FFFF66;" parent="r5-Ut91ZBRecWBddgbR_-19" vertex="1">
          <mxGeometry width="70" height="70" as="geometry" />
        </mxCell>
        <mxCell id="r5-Ut91ZBRecWBddgbR_-21" value="B" style="text;html=1;strokeColor=none;fillColor=none;align=center;verticalAlign=middle;whiteSpace=wrap;rounded=0;" parent="r5-Ut91ZBRecWBddgbR_-19" vertex="1">
          <mxGeometry x="5" y="20" width="60" height="30" as="geometry" />
        </mxCell>
        <mxCell id="r5-Ut91ZBRecWBddgbR_-22" value="" style="group" parent="1" vertex="1" connectable="0">
          <mxGeometry x="1006" y="139" width="90" height="90" as="geometry" />
        </mxCell>
        <mxCell id="r5-Ut91ZBRecWBddgbR_-23" value="" style="ellipse;whiteSpace=wrap;html=1;aspect=fixed;fillColor=#FFFF99;" parent="r5-Ut91ZBRecWBddgbR_-22" vertex="1">
          <mxGeometry width="90" height="90" as="geometry" />
        </mxCell>
        <mxCell id="r5-Ut91ZBRecWBddgbR_-24" value="C" style="text;html=1;strokeColor=none;fillColor=none;align=center;verticalAlign=middle;whiteSpace=wrap;rounded=0;" parent="r5-Ut91ZBRecWBddgbR_-22" vertex="1">
          <mxGeometry x="14" y="30" width="60" height="30" as="geometry" />
        </mxCell>
        <mxCell id="r5-Ut91ZBRecWBddgbR_-25" value="" style="rounded=0;whiteSpace=wrap;html=1;rotation=90;fillColor=#FF0000;" parent="1" vertex="1">
          <mxGeometry x="340" y="322" width="40" height="20" as="geometry" />
        </mxCell>
        <mxCell id="r5-Ut91ZBRecWBddgbR_-26" value="" style="rounded=0;whiteSpace=wrap;html=1;rotation=90;strokeColor=#FF9933;fillColor=#FF9933;" parent="1" vertex="1">
          <mxGeometry x="340" y="367" width="40" height="20" as="geometry" />
        </mxCell>
        <mxCell id="r5-Ut91ZBRecWBddgbR_-27" value="" style="rounded=0;whiteSpace=wrap;html=1;rotation=90;fillColor=#FFFF00;" parent="1" vertex="1">
          <mxGeometry x="340" y="415" width="40" height="20" as="geometry" />
        </mxCell>
        <mxCell id="r5-Ut91ZBRecWBddgbR_-28" value="" style="rounded=0;whiteSpace=wrap;html=1;rotation=90;strokeColor=#0000FF;fillColor=#0000FF;" parent="1" vertex="1">
          <mxGeometry x="340" y="468" width="40" height="20" as="geometry" />
        </mxCell>
        <mxCell id="r5-Ut91ZBRecWBddgbR_-29" value="排券顺序" style="text;html=1;strokeColor=none;fillColor=none;align=center;verticalAlign=middle;whiteSpace=wrap;rounded=0;" parent="1" vertex="1">
          <mxGeometry x="270" y="392" width="60" height="30" as="geometry" />
        </mxCell>
        <mxCell id="r5-Ut91ZBRecWBddgbR_-30" value="利率B" style="text;html=1;strokeColor=none;fillColor=none;align=center;verticalAlign=middle;whiteSpace=wrap;rounded=0;" parent="1" vertex="1">
          <mxGeometry x="370" y="322" width="60" height="30" as="geometry" />
        </mxCell>
        <mxCell id="r5-Ut91ZBRecWBddgbR_-31" value="利率C" style="text;html=1;strokeColor=none;fillColor=none;align=center;verticalAlign=middle;whiteSpace=wrap;rounded=0;" parent="1" vertex="1">
          <mxGeometry x="438" y="322" width="60" height="30" as="geometry" />
        </mxCell>
        <mxCell id="r5-Ut91ZBRecWBddgbR_-32" value="利率A-(B+C)" style="text;html=1;strokeColor=none;fillColor=none;align=center;verticalAlign=middle;whiteSpace=wrap;rounded=0;" parent="1" vertex="1">
          <mxGeometry x="498" y="322" width="92" height="30" as="geometry" />
        </mxCell>
        <mxCell id="r5-Ut91ZBRecWBddgbR_-33" value="CD B" style="text;html=1;strokeColor=none;fillColor=none;align=center;verticalAlign=middle;whiteSpace=wrap;rounded=0;" parent="1" vertex="1">
          <mxGeometry x="370" y="362" width="60" height="30" as="geometry" />
        </mxCell>
        <mxCell id="r5-Ut91ZBRecWBddgbR_-34" value="CD C" style="text;html=1;strokeColor=none;fillColor=none;align=center;verticalAlign=middle;whiteSpace=wrap;rounded=0;" parent="1" vertex="1">
          <mxGeometry x="438" y="362" width="60" height="30" as="geometry" />
        </mxCell>
        <mxCell id="r5-Ut91ZBRecWBddgbR_-35" value="CD A-(B+C)" style="text;html=1;strokeColor=none;fillColor=none;align=center;verticalAlign=middle;whiteSpace=wrap;rounded=0;" parent="1" vertex="1">
          <mxGeometry x="498" y="362" width="92" height="30" as="geometry" />
        </mxCell>
        <mxCell id="r5-Ut91ZBRecWBddgbR_-36" value="信用1 B" style="text;html=1;strokeColor=none;fillColor=none;align=center;verticalAlign=middle;whiteSpace=wrap;rounded=0;" parent="1" vertex="1">
          <mxGeometry x="374" y="407" width="60" height="30" as="geometry" />
        </mxCell>
        <mxCell id="r5-Ut91ZBRecWBddgbR_-37" value="信用1 C" style="text;html=1;strokeColor=none;fillColor=none;align=center;verticalAlign=middle;whiteSpace=wrap;rounded=0;" parent="1" vertex="1">
          <mxGeometry x="442" y="407" width="60" height="30" as="geometry" />
        </mxCell>
        <mxCell id="r5-Ut91ZBRecWBddgbR_-39" value="信用2 B" style="text;html=1;strokeColor=none;fillColor=none;align=center;verticalAlign=middle;whiteSpace=wrap;rounded=0;" parent="1" vertex="1">
          <mxGeometry x="506" y="407" width="60" height="30" as="geometry" />
        </mxCell>
        <mxCell id="r5-Ut91ZBRecWBddgbR_-40" value="信用2 C" style="text;html=1;strokeColor=none;fillColor=none;align=center;verticalAlign=middle;whiteSpace=wrap;rounded=0;" parent="1" vertex="1">
          <mxGeometry x="574" y="407" width="60" height="30" as="geometry" />
        </mxCell>
        <mxCell id="r5-Ut91ZBRecWBddgbR_-41" value="信用1 A-(B+C)" style="text;html=1;strokeColor=none;fillColor=none;align=center;verticalAlign=middle;whiteSpace=wrap;rounded=0;" parent="1" vertex="1">
          <mxGeometry x="380" y="463" width="92" height="30" as="geometry" />
        </mxCell>
        <mxCell id="r5-Ut91ZBRecWBddgbR_-42" value="信用2 A-(B+C)" style="text;html=1;strokeColor=none;fillColor=none;align=center;verticalAlign=middle;whiteSpace=wrap;rounded=0;" parent="1" vertex="1">
          <mxGeometry x="490" y="463" width="92" height="30" as="geometry" />
        </mxCell>
        <mxCell id="r5-Ut91ZBRecWBddgbR_-43" value="信用1 ,信用2，商金，CD，利率" style="text;html=1;strokeColor=none;fillColor=none;align=center;verticalAlign=middle;whiteSpace=wrap;rounded=0;fontSize=17;" parent="1" vertex="1">
          <mxGeometry x="320" y="-80" width="390" height="30" as="geometry" />
        </mxCell>
      </root>
    </mxGraphModel>
  </diagram>
</mxfile>
